<mxfile host="app.diagrams.net" modified="2023-11-22T09:22:19.720Z" agent="Mozilla/5.0 (Macintosh; Intel Mac OS X 10_15_7) AppleWebKit/537.36 (KHTML, like Gecko) Chrome/119.0.0.0 Safari/537.36" version="21.3.7" etag="4a0LpV0kgPY6CblM5iSV" type="github">
  <diagram name="Page-1" id="ko_dqjG6y3X7jD0QXsYj">
    <mxGraphModel>
      <root>
        <mxCell id="0" />
        <mxCell id="1" parent="0" />
      </root>
    </mxGraphModel>
  </diagram>
</mxfile>
